/* XPM */
static char * eimage_xpm[] = {
"22 22 141 2",
"  	c None",
". 	c #000000",
"+ 	c #000001",
"@ 	c #000002",
"# 	c #00000B",
"$ 	c #00000A",
"% 	c #000008",
"& 	c #000003",
"* 	c #00FF00",
"= 	c #007F00",
"- 	c #008000",
"; 	c #00FE00",
"> 	c #000216",
", 	c #000116",
"' 	c #000113",
") 	c #024403",
"! 	c #00032E",
"~ 	c #000224",
"{ 	c #000112",
"] 	c #000005",
"^ 	c #064609",
"/ 	c #058407",
"( 	c #068408",
"_ 	c #03071D",
": 	c #00032A",
"< 	c #00021B",
"[ 	c #00000C",
"} 	c #044606",
"| 	c #028302",
"1 	c #00021E",
"2 	c #000219",
"3 	c #495982",
"4 	c #768A9C",
"5 	c #8FA0AE",
"6 	c #A4B1BD",
"7 	c #728597",
"8 	c #00032B",
"9 	c #00085A",
"0 	c #526387",
"a 	c #314E6B",
"b 	c #576F86",
"c 	c #EBEEC7",
"d 	c #51677C",
"e 	c #00075A",
"f 	c #667795",
"g 	c #375372",
"h 	c #5C738C",
"i 	c #7A8DA1",
"j 	c #EEF1D1",
"k 	c #FEFEDF",
"l 	c #566B82",
"m 	c #00032C",
"n 	c #000004",
"o 	c #77899F",
"p 	c #3D5A77",
"q 	c #617990",
"r 	c #7E92A4",
"s 	c #5A7186",
"t 	c #000430",
"u 	c #7F92A7",
"v 	c #435F7E",
"w 	c #667D96",
"x 	c #8295A9",
"y 	c #5E758C",
"z 	c #000436",
"A 	c #45545A",
"B 	c #354B4F",
"C 	c #496684",
"D 	c #80A37B",
"E 	c #97B493",
"F 	c #638E5D",
"G 	c #6B829B",
"H 	c #9CACBC",
"I 	c #788DA3",
"J 	c #91A2B4",
"K 	c #515F54",
"L 	c #3D4852",
"M 	c #00031C",
"N 	c #000330",
"O 	c #08F609",
"P 	c #28982F",
"Q 	c #4F6B89",
"R 	c #09820C",
"S 	c #02FA02",
"T 	c #00FD00",
"U 	c #00021C",
"V 	c #08F808",
"W 	c #2CA22E",
"X 	c #56728F",
"Y 	c #058206",
"Z 	c #01FC01",
"` 	c #000220",
" .	c #0C8A0B",
"..	c #387F38",
"+.	c #115110",
"@.	c #068506",
"#.	c #000323",
"$.	c #7B8A97",
"%.	c #000644",
"&.	c #00095A",
"*.	c #7D9192",
"=.	c #5C8457",
"-.	c #000642",
";.	c #000859",
">.	c #A5B4AF",
",.	c #A0BA9C",
"'.	c #00063D",
").	c #A2B9A2",
"!.	c #000437",
"~.	c #A7BEA5",
"{.	c #73936F",
"].	c #597F54",
"^.	c #577D52",
"/.	c #567B51",
"(.	c #000432",
"_.	c #024302",
":.	c #00000E",
"<.	c #00011B",
"[.	c #000434",
"}.	c #125C16",
"|.	c #0E9613",
"1.	c #0E9211",
"2.	c #071229",
"3.	c #00053D",
"4.	c #00053C",
"5.	c #000539",
"6.	c #000538",
"7.	c #064A07",
"8.	c #008101",
"9.	c #000114",
"0.	c #000111",
"a.	c #018001",
"b.	c #00FE01",
"c.	c #000422",
"d.	c #000217",
"e.	c #000321",
"f.	c #00021D",
"g.	c #00042F",
"h.	c #000218",
"i.	c #00031E",
"j.	c #00053B",
"  . + @           . . +             # $ %   ",
"& * * =           - * * #           = ; ; # ",
"# ; ; =           = ; ; >           = ; ; , ",
"' = - ) ! ~ { ] @ ^ / ( _ : < [ & + } | - 1 ",
"  2 3 4 4 4 4 4 4 4 4 4 4 5 5 6 6 5 5 7 8 9 ",
"  , 0 a a a a a a a a a b 6 4 c c 4 6 d 8 e ",
"  [ f g g g g g g g g g h i j k k c i l m   ",
"  n o p p p p p p p p p q r c k k c r s t   ",
"  . u v v v . . . v v v w x w c c x w y z   ",
"  . A B C . D E F . C C G H I J J I K L M N ",
"@ ; O P . D E D F F . Q Q Q Q . . Q R S T U ",
"n ; V W D E E F F F F . X X . D D . Y Z ; ` ",
"] -  ...E E D F F F F F . . D D F F +.@.- #.",
"  [ $.E E D F F F F F F F D D D F F F . %.&.",
"  $ *.E D D F F F F F F F F D D F F F =.-.;.",
"  ] >.,.D F F F F F F F F F F F F F F =.'.e ",
"  + ).D D F F F F F F F F F F F F F F =.!.  ",
"  + ~.=.{.].].].].].].].].^.^.^.^.^.^./.(.  ",
"$ = = _.:.<.8 [.!.}.|.1.2.3.4.5.6.!.7.8.= 9.",
"0.; ; =           a.b.; c.&.&.      = ; ; d.",
", ; ; =           = ; ; e.9         = ; ; f.",
"g.' h.i.9         % { f.j.9         % { U 5."};
